HIERARCHY
ROOT SimulationBone
{
	OFFSET 0.000000 0.000000 0.000000
	CHANNELS 6 Xposition Yposition Zposition Zrotation Yrotation Xrotation 
	JOINT Hips
	{
		OFFSET 0.000000 0.000000 0.000000
		CHANNELS 6 Xposition Yposition Zposition Zrotation Yrotation Xrotation 
		JOINT RightUpLeg
		{
			OFFSET 0.103457 1.857824 10.548504
			CHANNELS 3 Zrotation Yrotation Xrotation
			JOINT RightLeg
			{
				OFFSET 43.500000 -0.000038 -0.000017
				CHANNELS 3 Zrotation Yrotation Xrotation
				JOINT RightFoot
				{
					OFFSET 42.372200 0.000011 0.000019
					CHANNELS 3 Zrotation Yrotation Xrotation
					JOINT RightToe
					{
						OFFSET 17.300011 0.000002 -0.000008
						CHANNELS 3 Zrotation Yrotation Xrotation
						End Site
						{
							OFFSET 0.000000 0.000000 0.000000
						}
					}
				}
			}
		}
		JOINT LeftUpLeg
		{
			OFFSET 0.103457 1.857822 -10.548492
			CHANNELS 3 Zrotation Yrotation Xrotation
			JOINT LeftLeg
			{
				OFFSET 43.500038 -0.000027 0.000036
				CHANNELS 3 Zrotation Yrotation Xrotation
				JOINT LeftFoot
				{
					OFFSET 42.372261 0.000015 0.000010
					CHANNELS 3 Zrotation Yrotation Xrotation
					JOINT LeftToe
					{
						OFFSET 17.299988 -0.000006 0.000008
						CHANNELS 3 Zrotation Yrotation Xrotation
						End Site
						{
							OFFSET 0.000000 0.000000 0.000000
						}
					}
				}
			}
		}
		JOINT Spine
		{
			OFFSET 6.901965 -2.603737 0.000006
			CHANNELS 3 Zrotation Yrotation Xrotation
			JOINT Spine1
			{
				OFFSET 12.588104 -0.000005 0.000007
				CHANNELS 3 Zrotation Yrotation Xrotation
				JOINT Spine2
				{
					OFFSET 12.343202 0.000026 -0.000008
					CHANNELS 3 Zrotation Yrotation Xrotation
					JOINT Neck
					{
						OFFSET 25.832890 -0.000029 -0.000007
						CHANNELS 3 Zrotation Yrotation Xrotation
						JOINT Head
						{
							OFFSET 11.766619 0.000021 0.000012
							CHANNELS 3 Zrotation Yrotation Xrotation
							End Site
							{
								OFFSET 0.000000 0.000000 0.000000
							}
						}
					}
					JOINT RightShoulder
					{
						OFFSET 19.745909 -1.480377 6.000106
						CHANNELS 3 Zrotation Yrotation Xrotation
						JOINT RightArm
						{
							OFFSET 11.284110 -0.000009 -0.000020
							CHANNELS 3 Zrotation Yrotation Xrotation
							JOINT RightForeArm
							{
								OFFSET 33.000053 0.000014 0.000021
								CHANNELS 3 Zrotation Yrotation Xrotation
								JOINT RightHand
								{
									OFFSET 25.200008 0.000006 -0.000004
									CHANNELS 3 Zrotation Yrotation Xrotation
									End Site
									{
										OFFSET 0.000000 0.000000 0.000000
									}
								}
							}
						}
					}
					JOINT LeftShoulder
					{
						OFFSET 19.746101 -1.480381 -6.000081
						CHANNELS 3 Zrotation Yrotation Xrotation
						JOINT LeftArm
						{
							OFFSET 11.284131 -0.000022 0.000003
							CHANNELS 3 Zrotation Yrotation Xrotation
							JOINT LeftForeArm
							{
								OFFSET 33.000095 0.000014 0.000005
								CHANNELS 3 Zrotation Yrotation Xrotation
								JOINT LeftHand
								{
									OFFSET 25.199774 0.000153 0.000423
									CHANNELS 3 Zrotation Yrotation Xrotation
									End Site
									{
										OFFSET 0.000000 0.000000 0.000000
									}
								}
							}
						}
					}
				}
			}
		}
	}
}
MOTION
Frames: 13
Frame Time: 0.016667
5.452602 0.000000 425.586445 180.000000 67.155781 180.000000 0.822449 87.419133 -0.515671 97.524656 0.464530 -179.207816 -161.427244 -0.835591 179.896684 -34.730875 0.739665 5.100244 78.104372 -3.694373 -0.440958 21.454559 0.003113 0.000019 158.985801 -0.340254 -177.028142 -22.507523 2.943809 2.345602 69.856922 -3.114957 -3.957849 21.454552 -0.003086 0.000002 9.195937 0.582215 -1.385167 8.364517 1.262945 -2.724782 8.046728 1.246344 -2.732368 18.202565 -2.410312 0.051671 -17.519798 3.883652 -1.374522 166.838227 -73.513280 12.104584 -20.141015 52.216395 28.881083 -47.665036 -21.986562 2.171537 0.406748 -16.449622 11.559838 -155.727729 79.277608 26.206722 -9.798808 -60.600787 -43.228126 -27.355277 14.207529 -1.128349 5.695387 15.912590 2.772289 
4.854441 0.000000 423.651812 180.000000 67.058316 180.000000 0.926786 87.316849 -0.304729 97.738793 1.274850 -179.319608 -162.498970 -1.797899 179.187253 -38.830758 1.391531 5.421384 75.275985 -4.521742 -2.288102 21.454558 0.003109 0.000022 159.025874 -1.120502 -176.815853 -25.415043 3.303912 2.358037 71.228613 -3.095446 -4.009727 21.454550 -0.003089 0.000002 9.261020 0.805272 -1.326746 8.490822 1.705643 -2.591119 8.172933 1.689843 -2.601381 18.350439 -2.445824 0.093772 -17.604150 3.785411 -1.293041 166.681026 -73.450689 12.267942 -20.021749 52.894151 28.883633 -46.296671 -21.859185 2.118775 0.984297 -16.897601 10.616708 -156.373996 79.263287 25.550049 -11.201047 -60.391786 -42.221232 -26.183751 13.784510 -1.083509 5.964040 15.102798 2.907956 
4.258968 0.000000 421.736837 180.000000 66.994354 180.000000 1.062056 87.363769 -0.084832 97.861467 1.901693 -179.383940 -164.046076 -2.627149 178.135429 -43.434363 2.306499 5.718650 72.329034 -5.394589 -3.975035 21.454557 0.003109 0.000019 159.493278 -1.757415 -175.924838 -27.460814 3.393739 2.001119 72.773060 -2.989464 -4.667939 21.454550 -0.003092 0.000001 9.296122 0.977348 -1.282482 8.558494 2.046789 -2.489580 8.240508 2.031592 -2.501893 18.527652 -2.424466 0.131718 -17.685265 3.652649 -1.202396 166.304685 -73.431874 12.653712 -19.793932 53.537352 28.952011 -44.949206 -21.592277 2.058573 1.632298 -17.233255 9.454543 -156.477816 79.339808 25.442084 -12.530665 -60.402342 -41.161859 -25.243669 13.575601 -1.056164 6.202582 13.880298 2.827168 
3.666987 0.000000 419.839468 180.000000 66.962018 180.000000 1.202142 87.503891 0.138225 97.926193 2.386816 -179.398582 -166.001273 -3.368505 177.211949 -48.273109 3.237837 5.743869 69.067138 -6.336145 -6.016366 21.454558 0.003110 0.000014 160.257289 -2.313201 -174.842297 -28.859457 3.335220 1.534779 74.329642 -2.843217 -5.542424 21.454553 -0.003094 -0.000001 9.310680 1.105063 -1.238727 8.586209 2.298907 -2.392554 8.268133 2.284289 -2.406383 18.714291 -2.319818 0.132310 -17.709147 3.526415 -1.152291 165.459966 -73.469001 13.516973 -19.458691 54.111765 29.210676 -43.603800 -21.250056 1.995997 2.297900 -17.443670 8.115054 -156.422011 79.490535 25.494989 -13.652033 -60.552043 -40.189903 -24.662148 13.599439 -1.047518 6.476807 12.528402 2.718720 
3.077224 0.000000 417.959911 180.000000 66.959441 180.000000 1.314735 87.661522 0.358823 97.982129 2.798859 -179.368551 -168.270594 -4.058660 176.867364 -53.078163 3.888427 5.326048 65.467509 -7.398155 -8.775028 21.454560 0.003109 0.000010 161.152801 -2.836663 -174.145245 -29.946729 3.340785 1.266976 75.825411 -2.721546 -6.071925 21.454555 -0.003095 -0.000002 9.321273 1.202060 -1.178584 8.607094 2.488369 -2.265060 8.288936 2.474521 -2.280041 18.898918 -2.105444 0.072434 -17.650337 3.453584 -1.185114 164.006964 -73.573557 15.000248 -19.061772 54.595240 29.746240 -42.224504 -20.900099 1.933022 2.921313 -17.550155 6.694278 -156.610133 79.668664 25.300577 -14.505267 -60.708335 -39.416026 -24.507618 13.805239 -1.058007 6.825147 11.402677 2.755617 
2.488726 0.000000 416.099017 180.000000 66.986230 180.000000 1.372719 87.830811 0.572359 98.027460 3.186138 -179.289803 -170.746287 -4.714199 176.905397 -57.746161 4.277198 4.601571 62.452011 -8.201776 -11.183227 21.454562 0.003109 0.000009 162.148937 -3.386003 -173.767567 -30.722726 3.380419 1.180035 77.211907 -2.644578 -6.312863 21.454555 -0.003093 -0.000001 9.333762 1.284142 -1.102895 8.632596 2.646904 -2.107510 8.314359 2.634007 -2.123462 19.098167 -1.812421 -0.035565 -17.615586 3.410091 -1.282385 162.578978 -73.679002 16.457029 -18.728381 54.903750 30.444300 -40.931383 -20.512409 1.870675 3.403142 -17.567726 5.543831 -156.973030 79.796534 24.930083 -15.239210 -60.752161 -38.767798 -24.709898 14.086831 -1.079396 7.145139 10.664027 2.832770 
1.902618 0.000000 414.255660 180.000000 67.041821 180.000000 1.361562 88.018866 0.773375 98.057281 3.577550 -179.166693 -173.318181 -5.344501 177.044997 -62.194620 4.496283 3.768112 61.001722 -8.219972 -12.182833 21.454562 0.003112 0.000013 163.242374 -4.006623 -173.523764 -31.146063 3.378144 1.187101 78.460738 -2.606049 -6.442955 21.454552 -0.003090 0.000000 9.351623 1.362769 -1.016534 8.669413 2.797793 -1.928710 8.351096 2.785966 -1.945582 19.330891 -1.493837 -0.169388 -17.714449 3.376484 -1.416401 161.839946 -73.731229 17.210401 -18.565057 54.967222 31.175733 -39.847351 -20.054658 1.810783 3.661823 -17.527059 4.978631 -157.394217 79.816251 24.502002 -15.994221 -60.593611 -38.154437 -25.185928 14.347058 -1.103341 7.314529 10.389432 2.831478 
1.322178 0.000000 412.424828 180.000000 67.127470 180.000000 1.313962 88.214783 0.958538 98.104734 3.943889 -179.041342 -175.909309 -5.864004 177.310905 -66.277347 4.523046 3.045034 61.612294 -7.516691 -11.948885 21.454562 0.003115 0.000017 164.424086 -4.659000 -173.385827 -31.348703 3.335023 1.235252 79.606127 -2.582725 -6.509969 21.454551 -0.003087 0.000001 9.379512 1.429859 -0.922767 8.726854 2.925174 -1.735650 8.408464 2.914501 -1.753296 19.596564 -1.233240 -0.302482 -17.935445 3.423899 -1.584236 161.661014 -73.732578 17.392929 -18.484665 54.823102 31.990180 -38.949201 -19.581765 1.756271 3.724553 -17.498757 4.912791 -158.120967 79.778011 23.764042 -16.681527 -60.260107 -37.581240 -25.940349 14.580466 -1.130423 7.247266 10.506848 2.836795 
0.751363 0.000000 410.599589 180.000000 67.247201 180.000000 1.264724 88.406032 1.123629 98.196645 4.254833 -178.956629 -178.467010 -6.192682 177.739901 -69.833000 4.365635 2.586929 64.314801 -6.437353 -10.954243 21.454562 0.003115 0.000019 165.679656 -5.291806 -173.368152 -31.470283 3.282681 1.288169 80.676185 -2.557947 -6.542146 21.454552 -0.003087 0.000000 9.419839 1.476410 -0.823517 8.809701 3.011179 -1.532773 8.491252 3.001726 -1.550942 19.879106 -1.096355 -0.408943 -18.219653 3.604067 -1.775145 161.733932 -73.692178 17.319930 -18.362770 54.543406 32.945631 -38.178402 -19.166857 1.709186 3.655358 -17.525458 5.147975 -159.380430 79.757879 22.484195 -17.202140 -59.825194 -37.071654 -26.980138 14.816138 -1.163422 6.909731 10.945461 2.933290 
0.190701 0.000000 408.778173 180.000000 67.402240 180.000000 1.216392 88.591591 1.266544 98.298398 4.536263 -178.933896 178.998399 -6.407108 178.145281 -72.713988 4.178017 2.237121 67.624097 -5.414518 -9.911329 21.454563 0.003115 0.000017 166.975271 -5.895098 -173.504345 -31.507587 3.298493 1.344371 81.612099 -2.556496 -6.623326 21.454555 -0.003087 -0.000001 9.465008 1.509321 -0.716917 8.902682 3.069287 -1.316055 8.584185 3.061143 -1.334583 20.117689 -1.046604 -0.467025 -18.436967 3.800893 -1.918597 161.876958 -73.618227 17.177004 -18.127403 54.237755 33.946114 -37.483141 -18.868751 1.672193 3.557007 -17.517863 5.436788 -160.949936 79.838089 20.887937 -17.620415 -59.423750 -36.651812 -28.233692 15.129876 -1.204984 6.445926 11.788925 3.013543 
-0.364244 0.000000 406.964837 180.000000 67.589249 180.000000 1.167702 88.777404 1.390771 98.368205 4.810285 -178.984461 176.470918 -6.599903 178.351355 -74.806051 4.083175 1.790197 70.038172 -4.679765 -9.431408 21.454564 0.003117 0.000013 168.284797 -6.455168 -173.795951 -31.422432 3.435617 1.396714 82.349687 -2.592054 -6.817825 21.454554 -0.003085 -0.000001 9.506707 1.535446 -0.602532 8.989107 3.113033 -1.084360 8.670571 3.106290 -1.103165 20.250218 -1.041506 -0.466485 -18.473495 3.902249 -1.956887 161.995132 -73.537364 17.060051 -17.753500 54.013634 34.868498 -36.826008 -18.716768 1.646209 3.513003 -17.389112 5.566611 -162.558124 80.078223 19.251339 -18.049988 -59.169940 -36.287841 -29.618581 15.576633 -1.258691 6.008412 13.049470 2.936424 
-0.918950 0.000000 405.164298 180.000000 67.804495 180.000000 1.123801 88.985779 1.498195 98.397681 5.024390 -179.085022 173.977035 -6.711306 178.413052 -76.115593 4.022741 1.216545 71.589192 -4.033937 -9.168145 21.454565 0.003119 0.000010 169.629442 -6.909398 -174.096987 -31.180267 3.604866 1.380463 82.889665 -2.601027 -7.052260 21.454553 -0.003084 -0.000000 9.543645 1.545471 -0.489454 9.066104 3.124522 -0.856633 8.747541 3.119155 -0.875517 20.255394 -1.116459 -0.440623 -18.356343 3.975634 -1.950733 162.207990 -73.548696 16.842052 -17.373569 53.935499 35.617178 -36.220987 -18.636501 1.625904 3.486600 -17.188197 5.515436 -163.998017 80.427403 17.786017 -18.621588 -59.035133 -35.718180 -31.083667 16.081388 -1.320488 5.616114 14.305839 2.620907 
-1.476993 0.000000 403.379853 180.000000 68.045767 180.000000 1.087996 89.228335 1.589407 98.390011 5.135815 -179.204264 171.560798 -6.674543 178.431760 -76.665683 3.914337 0.576137 72.713820 -3.298735 -8.634804 21.454563 0.003117 0.000010 171.019208 -7.219959 -174.268709 -30.783085 3.708184 1.243632 83.265283 -2.525048 -7.237421 21.454553 -0.003089 -0.000000 9.575285 1.531455 -0.386407 9.132247 3.088613 -0.650974 8.813672 3.084489 -0.669642 20.160486 -1.297004 -0.424310 -18.161187 4.098620 -1.968872 162.609280 -73.723356 16.423759 -17.085108 54.031610 36.141790 -35.701531 -18.549594 1.607589 3.440435 -16.995618 5.321372 -165.096758 80.810408 16.668116 -19.421773 -58.945908 -34.735956 -32.580342 16.550256 -1.381617 5.250744 15.166445 2.046912 
